<?xml version="1.0" encoding="UTF-8" standalone="no"?>
<!-- Created with Inkscape (http://www.inkscape.org/) -->

<svg
   width="550"
   height="145"
   viewBox="0 0 145.52084 38.364584"
   version="1.1"
   id="svg5"
   inkscape:export-filename="raspotify.svg"
   inkscape:export-xdpi="96"
   inkscape:export-ydpi="96"
   xml:space="preserve"
   xmlns:inkscape="http://www.inkscape.org/namespaces/inkscape"
   xmlns:sodipodi="http://sodipodi.sourceforge.net/DTD/sodipodi-0.dtd"
   xmlns="http://www.w3.org/2000/svg"
   xmlns:svg="http://www.w3.org/2000/svg"><sodipodi:namedview
     id="namedview7"
     pagecolor="#ffffff"
     bordercolor="#000000"
     borderopacity="0.25"
     inkscape:showpageshadow="2"
     inkscape:pageopacity="0.0"
     inkscape:pagecheckerboard="0"
     inkscape:deskcolor="#d1d1d1"
     inkscape:document-units="mm"
     showgrid="false" /><defs
     id="defs2" /><g
     inkscape:label="Layer 1"
     inkscape:groupmode="layer"
     id="layer1"><g
       id="g3261"><path
         d="m 13.665388,8.6077082 q 0,1.2573 -0.469899,2.1970998 -0.4699,0.9398 -1.27,1.5875 -0.8001,0.6477 -1.7907,1.0414 l 4.610099,7.4295 h -4.711699 l -3.8100004,-6.731 h -1.1811 v 6.731 H 0.87648866 V 3.2610083 H 6.4136886 q 3.5941004,0 5.4229004,1.3081 1.828799,1.3081 1.828799,4.0385999 z m -4.2925995,0 q 0,-1.27 -0.7492999,-1.8415 -0.7366,-0.5841999 -2.1971,-0.5841999 h -1.3843 v 5.0926997 h 1.5494 q 1.3589,0 2.0701,-0.635 0.7111999,-0.635 0.7111999,-2.0319998 z"
         style="font-size:96px;font-family:'Fira Code';-inkscape-font-specification:'Fira Code';letter-spacing:-5px;white-space:pre;fill:#c51a4a;stroke-width:0.264583"
         id="path3187" /><path
         d="m 26.452133,16.977008 q 0,0.762 0.2032,1.1049 0.2159,0.3429 0.6858,0.5207 l -0.8255,2.6416 q -1.1938,-0.1143 -2.0193,-0.5207 -0.8128,-0.4191 -1.2827,-1.2573 -0.7747,0.9271 -1.9812,1.3843 -1.2065,0.4445 -2.4638,0.4445 -2.0828,0 -3.3274,-1.1811 -1.2319,-1.1938 -1.2319,-3.0607 0,-2.1971 1.7145,-3.3909 1.7272,-1.1938 4.8514,-1.1938 h 1.8161 v -0.508 q 0,-1.0541 -0.6858,-1.5621 -0.6731,-0.5079998 -1.9812,-0.5079998 -0.6477,0 -1.6637,0.1904998 -1.016,0.1778 -2.032,0.5207 l -0.9271,-2.6669998 q 1.3081,-0.4953 2.7178,-0.7493 1.4224,-0.254 2.54,-0.254 3.0099,0 4.445,1.2319 1.4478,1.2192 1.4478,3.5305998 z m -6.2992,1.4478 q 0.6477,0 1.3589,-0.381 0.7112,-0.3937 1.0795,-1.1049 v -2.1844 h -0.9906 q -1.6764,0 -2.4638,0.5207 -0.7874,0.508 -0.7874,1.4986 0,0.7747 0.4699,1.2192 0.4826,0.4318 1.3335,0.4318 z"
         style="font-size:96px;font-family:'Fira Code';-inkscape-font-specification:'Fira Code';letter-spacing:-5px;white-space:pre;fill:#c51a4a;stroke-width:0.264583"
         id="path3189" /><path
         d="m 34.425577,18.424808 q 1.0033,0 1.6129,-0.3175 0.6223,-0.3175 0.6223,-0.9525 0,-0.4318 -0.2413,-0.7239 -0.2413,-0.2921 -0.9271,-0.5588 -0.6858,-0.2667 -2.032,-0.635 -1.2319,-0.3302 -2.1844,-0.8382 -0.9398,-0.508 -1.4732,-1.3081 -0.5207,-0.8001 -0.5207,-1.9939 0,-1.2064998 0.6731,-2.1462998 0.6731,-0.9398 1.9812,-1.4732 1.3081,-0.5461 3.2004,-0.5461 1.8034,0 3.1369,0.4699 1.3462,0.4572 2.3241,1.1684 l -1.6002,2.3621998 q -0.8382,-0.5207 -1.8034,-0.8255 -0.9652,-0.3174998 -1.9431,-0.3174998 -0.9779,0 -1.4605,0.2666998 -0.4699,0.254 -0.4699,0.7747 0,0.3429 0.2413,0.5969 0.254,0.2413 0.9398,0.508 0.6858,0.254 2.0066,0.635 1.3081,0.3683 2.2733,0.8509 0.9779,0.4826 1.5113,1.2954 0.5334,0.8001 0.5334,2.1209 0,1.4732 -0.8763,2.4765 -0.8763,0.9906 -2.3241,1.4859 -1.4478,0.4953 -3.175,0.4953 -1.9558,0 -3.4544,-0.5588 -1.4986,-0.5588 -2.5527,-1.4732 l 2.0193,-2.2606 q 0.7874,0.6096 1.778,1.016 1.0033,0.4064 2.1844,0.4064 z"
         style="font-size:96px;font-family:'Fira Code';-inkscape-font-specification:'Fira Code';letter-spacing:-5px;white-space:pre;fill:#c51a4a;stroke-width:0.264583"
         id="path3191" /><path
         d="m 50.400023,6.9313082 q 1.7653,0 2.8448,0.8763 1.0795,0.8763 1.5748,2.4764998 0.508,1.6002 0.508,3.7973 0,2.0828 -0.6096,3.7211 -0.6096,1.6256 -1.7653,2.5654 -1.1557,0.9271 -2.8067,0.9271 -1.9685,0 -3.2004,-1.4097 v 6.1849 l -4.0132,0.4191 V 7.3758082 h 3.556 l 0.1778,1.5113 q 0.8255,-1.0541 1.8034,-1.4986 0.9779,-0.4572 1.9304,-0.4572 z m -1.2446,2.9591 q -0.6985,0 -1.2319,0.4190998 -0.5334,0.4191 -0.9779,1.143 v 5.6896 q 0.4191,0.6223 0.8763,0.9144 0.4699,0.2921 1.1049,0.2921 1.0668,0 1.6637,-0.9652 0.5969,-0.9779 0.5969,-3.2512 0,-1.6764 -0.2413,-2.5908 -0.2413,-0.9271 -0.6985,-1.2827 -0.4572,-0.3682998 -1.0922,-0.3682998 z"
         style="font-size:96px;font-family:'Fira Code';-inkscape-font-specification:'Fira Code';letter-spacing:-5px;white-space:pre;fill:#1db954;stroke-width:0.264583"
         id="path3193" /><path
         d="m 62.691466,6.9313082 q 2.0828,0 3.5433,0.889 1.4605,0.889 2.2352,2.5018998 0.7747,1.6002 0.7747,3.7592 0,2.2479 -0.7874,3.8735 -0.7747,1.6129 -2.2352,2.4765 -1.4605,0.8636 -3.5306,0.8636 -2.0574,0 -3.5306,-0.8509 -1.4605,-0.8509 -2.2479,-2.4638 -0.7747,-1.6129 -0.7747,-3.8735 0,-2.1463 0.7747,-3.7592 0.7874,-1.6128998 2.2479,-2.5145998 1.4732,-0.9017 3.5306,-0.9017 z m 0,2.9591 q -1.2319,0 -1.8288,1.0159998 -0.5842,1.0033 -0.5842,3.2004 0,2.2352 0.5842,3.2385 0.5969,1.0033 1.8288,1.0033 1.2319,0 1.8161,-1.0033 0.5969,-1.0033 0.5969,-3.2639 0,-2.1844 -0.5969,-3.1877 -0.5842,-1.0032998 -1.8161,-1.0032998 z"
         style="font-size:96px;font-family:'Fira Code';-inkscape-font-specification:'Fira Code';letter-spacing:-5px;white-space:pre;fill:#1db954;stroke-width:0.264583"
         id="path3195" /><path
         d="m 82.90771,20.075808 q -0.7874,0.508 -1.905,0.8636 -1.1176,0.3556 -2.5146,0.3556 -2.6416,0 -3.9243,-1.3462 -1.2827,-1.3589 -1.2827,-3.683 v -6.1214 h -2.8321 V 7.3758082 h 2.8321 V 4.4548083 l 4.0132,-0.4826 v 3.4035999 h 4.3434 l -0.3937,2.7685998 h -3.9497 v 6.1214 q 0,1.0033 0.4572,1.4351 0.4572,0.4318 1.4605,0.4318 0.7112,0 1.2954,-0.1651 0.5969,-0.1778 1.0668,-0.4445 z"
         style="font-size:96px;font-family:'Fira Code';-inkscape-font-specification:'Fira Code';letter-spacing:-5px;white-space:pre;fill:#1db954;stroke-width:0.264583"
         id="path3197" /><path
         d="M 92.925856,7.3758082 V 18.120008 h 3.429 v 2.7432 h -11.2649 v -2.7432 h 3.8227 v -8.001 h -3.6957 V 7.3758082 Z m -2.4257,-7.06119987 q 1.0414,0 1.7018,0.64769999 0.6604,0.64769998 0.6604,1.61289998 0,0.9652 -0.6604,1.6256 -0.6604,0.6477 -1.7018,0.6477 -1.0541,0 -1.7272,-0.6477 -0.6604,-0.6604 -0.6604,-1.6256 0,-0.9652 0.6604,-1.61289998 0.6731,-0.64769999 1.7272,-0.64769999 z"
         style="font-size:96px;font-family:'Fira Code';-inkscape-font-specification:'Fira Code';letter-spacing:-5px;white-space:pre;fill:#1db954;stroke-width:0.264583"
         id="path3199" /><path
         d="m 107.1858,1.5973083 q 1.4732,0 2.6035,0.2413 1.1303,0.2286 2.0193,0.6096 l -1.1049,2.6162 q -0.6985,-0.2667 -1.4351,-0.381 -0.7366,-0.127 -1.4605,-0.127 -1.1938,0 -1.7145,0.4318 -0.508,0.4318 -0.508,1.4351 v 1.8033999 h 4.3942 l -0.4445,2.7812998 h -3.9497 v 9.8552 h -3.9878 v -9.8552 H 98.765699 V 8.2267082 H 101.5978 V 6.2709083 q 0,-1.3335 0.635,-2.3876 0.635,-1.0541 1.8796,-1.6637 1.2446,-0.6223 3.0734,-0.6223 z"
         style="font-size:96px;font-family:'Fira Code';-inkscape-font-specification:'Fira Code';letter-spacing:-5px;white-space:pre;fill:#1db954;stroke-width:0.264583"
         id="path3201" /><path
         d="m 125.26844,7.3758082 -4.4958,13.4873998 q -0.5969,1.7907 -1.5875,2.9972 -0.9779,1.2192 -2.4511,1.8796 -1.4605,0.6604 -3.5179,0.7747 l -0.4572,-2.8321 q 1.3335,-0.1651 2.1463,-0.4953 0.8255,-0.3302 1.3208,-0.9017 0.508,-0.5588 0.8763,-1.4224 h -1.3716 l -4.2799,-13.4873998 h 4.2418 l 2.6162,10.9219998 2.8448,-10.9219998 z"
         style="font-size:96px;font-family:'Fira Code';-inkscape-font-specification:'Fira Code';letter-spacing:-5px;white-space:pre;fill:#1db954;stroke-width:0.264583"
         id="path3203" /><path
         d="M 60.47131,34.358513 V 22.649136 h 2.319862 v 9.829781 h 5.164656 l -0.245533,1.879596 z"
         style="font-weight:600;font-size:16.9333px;font-family:'Fira Code';-inkscape-font-specification:'Fira Code Semi-Bold';letter-spacing:-1.32292px;fill:#4d4d4d;stroke-width:0.264583"
         id="path3215" /><path
         d="m 73.998868,25.392331 v 7.382918 h 2.362195 v 1.583264 h -7.222052 v -1.583264 h 2.624661 v -5.799655 h -2.539995 v -1.583263 z m -1.447797,-4.521192 q 0.618065,0 0.999065,0.381 0.389465,0.380999 0.389465,0.948264 0,0.567266 -0.389465,0.956732 -0.381,0.380999 -0.999065,0.380999 -0.618066,0 -1.007531,-0.380999 -0.389466,-0.389466 -0.389466,-0.956732 0,-0.567265 0.389466,-0.948264 0.389465,-0.381 1.007531,-0.381 z"
         style="font-weight:600;font-size:16.9333px;font-family:'Fira Code';-inkscape-font-specification:'Fira Code Semi-Bold';letter-spacing:-1.32292px;fill:#4d4d4d;stroke-width:0.264583"
         id="path3217" /><path
         d="m 81.091772,32.961516 q 0.787399,0 1.261531,-0.270933 0.482599,-0.2794 0.482599,-0.778932 0,-0.330199 -0.160866,-0.558799 -0.1524,-0.228599 -0.609599,-0.423332 -0.457199,-0.2032 -1.371597,-0.448733 -0.863599,-0.220133 -1.515531,-0.541865 -0.643465,-0.3302 -1.007531,-0.846665 -0.355599,-0.516466 -0.355599,-1.303865 0,-0.787398 0.440266,-1.380063 0.440265,-0.601133 1.269997,-0.931332 0.838198,-0.338666 2.015063,-0.338666 1.151464,0 2.015062,0.304799 0.863599,0.296333 1.481664,0.745066 l -0.914398,1.36313 q -0.541866,-0.347132 -1.176864,-0.558799 -0.626532,-0.220133 -1.354664,-0.220133 -0.787399,0 -1.151465,0.2286 -0.355599,0.2286 -0.355599,0.634999 0,0.287866 0.1778,0.491065 0.186266,0.194733 0.660398,0.381 0.482599,0.177799 1.371598,0.431799 0.872065,0.237066 1.51553,0.558799 0.651932,0.321732 1.007531,0.855131 0.3556,0.533399 0.3556,1.396998 0,0.973664 -0.567266,1.608663 -0.567265,0.634999 -1.498597,0.948265 -0.922865,0.304799 -2.006596,0.304799 -1.269998,0 -2.218262,-0.364066 -0.948265,-0.364066 -1.608664,-0.939798 l 1.159931,-1.303864 q 0.524933,0.414866 1.193798,0.685799 0.677332,0.270933 1.46473,0.270933 z"
         style="font-weight:600;font-size:16.9333px;font-family:'Fira Code';-inkscape-font-specification:'Fira Code Semi-Bold';letter-spacing:-1.32292px;fill:#4d4d4d;stroke-width:0.264583"
         id="path3219" /><path
         d="m 94.255265,33.858981 q -0.499533,0.330199 -1.210731,0.541865 -0.711199,0.211666 -1.540931,0.211666 -1.64253,0 -2.472261,-0.846665 -0.829732,-0.855131 -0.829732,-2.269062 v -4.521191 h -1.94733 v -1.583263 h 1.94733 v -1.97273 l 2.235196,-0.270933 v 2.243663 h 2.963327 l -0.228599,1.583263 h -2.734728 v 4.512725 q 0,0.694265 0.338666,1.015998 0.338666,0.321732 1.092197,0.321732 0.482599,0 0.880532,-0.110066 Q 93.1546,32.59745 93.4848,32.41965 Z"
         style="font-weight:600;font-size:16.9333px;font-family:'Fira Code';-inkscape-font-specification:'Fira Code Semi-Bold';letter-spacing:-1.32292px;fill:#4d4d4d;stroke-width:0.264583"
         id="path3221" /><path
         d="m 97.258777,30.556987 q 0.06773,0.838198 0.380999,1.363131 0.321733,0.524932 0.821265,0.770465 0.499533,0.245533 1.109132,0.245533 0.643467,0 1.210727,-0.2032 0.56727,-0.2032 1.1176,-0.567265 l 0.93133,1.278464 q -0.62653,0.524932 -1.49859,0.846665 -0.8636,0.321732 -1.905001,0.321732 -1.456263,0 -2.455328,-0.601132 -0.990598,-0.601132 -1.498597,-1.66793 -0.507999,-1.066798 -0.507999,-2.455328 0,-1.337731 0.499532,-2.412996 0.499533,-1.075264 1.439331,-1.701796 0.939798,-0.634999 2.269062,-0.634999 1.23613,0 2.1336,0.541866 0.89746,0.541865 1.38853,1.557863 0.49106,1.007532 0.49106,2.429929 0,0.228599 -0.0169,0.465666 -0.008,0.237066 -0.0254,0.423332 z m 1.92193,-3.843859 q -0.812799,0 -1.337731,0.584199 -0.516466,0.575732 -0.609599,1.828796 h 3.776123 q -0.0169,-1.134531 -0.47413,-1.76953 -0.44873,-0.643465 -1.354663,-0.643465 z"
         style="font-weight:600;font-size:16.9333px;font-family:'Fira Code';-inkscape-font-specification:'Fira Code Semi-Bold';letter-spacing:-1.32292px;fill:#4d4d4d;stroke-width:0.264583"
         id="path3223" /><path
         d="m 104.19081,34.358513 v -8.966182 h 1.94733 l 0.16087,1.109131 q 0.57573,-0.677332 1.2954,-1.015998 0.71966,-0.347133 1.54939,-0.347133 1.21073,0 1.84573,0.702732 0.635,0.694265 0.635,1.955796 v 6.561654 h -2.23519 v -5.689589 q 0,-0.677332 -0.0847,-1.083731 -0.0847,-0.414866 -0.32173,-0.592666 -0.23707,-0.186266 -0.6858,-0.186266 -0.36407,0 -0.70273,0.160866 -0.3302,0.160867 -0.62654,0.4318 -0.28786,0.270932 -0.54186,0.601132 v 6.358454 z"
         style="font-weight:600;font-size:16.9333px;font-family:'Fira Code';-inkscape-font-specification:'Fira Code Semi-Bold';letter-spacing:-1.32292px;fill:#4d4d4d;stroke-width:0.264583"
         id="path3225" /><path
         d="m 129.77273,22.649136 v 7.831651 q 0,1.193798 -0.49106,2.133596 -0.4826,0.931331 -1.41393,1.46473 -0.93134,0.533399 -2.29447,0.533399 -1.37159,0 -2.30292,-0.516465 -0.93134,-0.524933 -1.40547,-1.456264 -0.47413,-0.931332 -0.47413,-2.158996 v -7.831651 h 2.31986 v 7.179719 q 0,1.498597 0.4064,2.252129 0.4064,0.745065 1.45626,0.745065 1.05834,0 1.46473,-0.745065 0.4064,-0.753532 0.4064,-2.252129 v -7.179719 z"
         style="font-weight:600;font-size:16.9333px;font-family:'Fira Code';-inkscape-font-specification:'Fira Code Semi-Bold';letter-spacing:-1.32292px;fill:#4d4d4d;stroke-width:0.264583"
         id="path3227" /><path
         d="m 135.33318,25.138331 q 1.18533,0 1.89652,0.584199 0.71967,0.575732 1.0414,1.634063 0.3302,1.058332 0.3302,2.497662 0,1.380064 -0.39793,2.455329 -0.39793,1.075264 -1.1684,1.69333 -0.762,0.609598 -1.87959,0.609598 -1.3716,0 -2.21827,-0.973664 v 4.174058 l -2.23519,0.237066 V 25.392331 h 1.96426 l 0.11853,1.092197 q 0.5334,-0.694265 1.1938,-1.015998 0.6604,-0.330199 1.35467,-0.330199 z m -0.65194,1.676397 q -0.56726,0 -0.99906,0.338666 -0.42333,0.338666 -0.74507,0.838198 v 4.013192 q 0.3048,0.457199 0.69427,0.685799 0.38946,0.228599 0.88053,0.228599 0.85513,0 1.30386,-0.711198 0.4572,-0.719665 0.4572,-2.328329 0,-1.134531 -0.18626,-1.803396 -0.1778,-0.677332 -0.5334,-0.965199 -0.3556,-0.296332 -0.87207,-0.296332 z"
         style="font-weight:600;font-size:16.9333px;font-family:'Fira Code';-inkscape-font-specification:'Fira Code Semi-Bold';letter-spacing:-1.32292px;fill:#4d4d4d;stroke-width:0.264583"
         id="path3229" /><path
         d="m 144.44114,22.649136 -0.27093,7.560718 h -1.84573 l -0.28786,-7.560718 z m -1.19379,9.177849 q 0.59266,0 0.99059,0.414865 0.4064,0.4064 0.4064,0.973665 0,0.575732 -0.4064,0.990598 -0.39793,0.406399 -0.99059,0.406399 -0.57574,0 -0.98213,-0.406399 -0.4064,-0.414866 -0.4064,-0.990598 0,-0.567265 0.4064,-0.973665 0.40639,-0.414865 0.98213,-0.414865 z"
         style="font-weight:600;font-size:16.9333px;font-family:'Fira Code';-inkscape-font-specification:'Fira Code Semi-Bold';letter-spacing:-1.32292px;fill:#4d4d4d;stroke-width:0.264583"
         id="path3231" /></g></g></svg>
